<?xml version="1.0" encoding="UTF-8" standalone="no"?>
<!DOCTYPE svg PUBLIC "-//W3C//DTD SVG 1.1//EN"
 "http://www.w3.org/Graphics/SVG/1.1/DTD/svg11.dtd">
<!-- Generated by graphviz version 2.43.0 (0)
 -->
<!-- Title: /home/runner/work/incubator&#45;opendal/incubator&#45;opendal/bindings/cpp/include/async_defs.hpp Pages: 1 -->
<svg width="190pt" height="117pt"
 viewBox="0.00 0.00 189.50 117.00" xmlns="http://www.w3.org/2000/svg" xmlns:xlink="http://www.w3.org/1999/xlink">
<g id="graph0" class="graph" transform="scale(1 1) rotate(0) translate(4 113)">
<title>/home/runner/work/incubator&#45;opendal/incubator&#45;opendal/bindings/cpp/include/async_defs.hpp</title>
<polygon fill="white" stroke="transparent" points="-4,4 -4,-113 185.5,-113 185.5,4 -4,4"/>
<!-- Node1 -->
<g id="node1" class="node">
<title>Node1</title>
<g id="a_node1"><a xlink:title=" ">
<polygon fill="#bfbfbf" stroke="black" points="3.5,-56.5 3.5,-108.5 161.5,-108.5 161.5,-56.5 3.5,-56.5"/>
<text text-anchor="start" x="11.5" y="-96.5" font-family="Helvetica,sans-Serif" font-size="10.00">/home/runner/work/incubator</text>
<text text-anchor="start" x="11.5" y="-85.5" font-family="Helvetica,sans-Serif" font-size="10.00">&#45;opendal/incubator&#45;opendal</text>
<text text-anchor="start" x="11.5" y="-74.5" font-family="Helvetica,sans-Serif" font-size="10.00">/bindings/cpp/include/async</text>
<text text-anchor="middle" x="82.5" y="-63.5" font-family="Helvetica,sans-Serif" font-size="10.00">_defs.hpp</text>
</a>
</g>
</g>
<!-- Node2 -->
<g id="node2" class="node">
<title>Node2</title>
<g id="a_node2"><a xlink:title=" ">
<polygon fill="white" stroke="#bfbfbf" points="0,-0.5 0,-19.5 65,-19.5 65,-0.5 0,-0.5"/>
<text text-anchor="middle" x="32.5" y="-7.5" font-family="Helvetica,sans-Serif" font-size="10.00">rust/cxx.h</text>
</a>
</g>
</g>
<!-- Node1&#45;&gt;Node2 -->
<g id="edge1" class="edge">
<title>Node1&#45;&gt;Node2</title>
<path fill="none" stroke="midnightblue" d="M64.73,-56.45C58.05,-47.03 50.62,-36.55 44.58,-28.03"/>
<polygon fill="midnightblue" stroke="midnightblue" points="47.31,-25.83 38.67,-19.7 41.6,-29.88 47.31,-25.83"/>
</g>
<!-- Node3 -->
<g id="node3" class="node">
<title>Node3</title>
<g id="a_node3"><a xlink:title=" ">
<polygon fill="white" stroke="#bfbfbf" points="83.5,-0.5 83.5,-19.5 181.5,-19.5 181.5,-0.5 83.5,-0.5"/>
<text text-anchor="middle" x="132.5" y="-7.5" font-family="Helvetica,sans-Serif" font-size="10.00">rust/cxx_async.h</text>
</a>
</g>
</g>
<!-- Node1&#45;&gt;Node3 -->
<g id="edge2" class="edge">
<title>Node1&#45;&gt;Node3</title>
<path fill="none" stroke="midnightblue" d="M100.27,-56.45C106.95,-47.03 114.38,-36.55 120.42,-28.03"/>
<polygon fill="midnightblue" stroke="midnightblue" points="123.4,-29.88 126.33,-19.7 117.69,-25.83 123.4,-29.88"/>
</g>
</g>
</svg>
