<?xml version="1.0" encoding="UTF-8" standalone="no"?>
<!DOCTYPE svg PUBLIC "-//W3C//DTD SVG 1.1//EN"
 "http://www.w3.org/Graphics/SVG/1.1/DTD/svg11.dtd">
<!-- Generated by graphviz version 2.43.0 (0)
 -->
<!-- Title: /home/runner/work/incubator&#45;opendal/incubator&#45;opendal/bindings/cpp/include/opendal_async.hpp Pages: 1 -->
<svg width="369pt" height="173pt"
 viewBox="0.00 0.00 369.00 173.00" xmlns="http://www.w3.org/2000/svg" xmlns:xlink="http://www.w3.org/1999/xlink">
<g id="graph0" class="graph" transform="scale(1 1) rotate(0) translate(4 169)">
<title>/home/runner/work/incubator&#45;opendal/incubator&#45;opendal/bindings/cpp/include/opendal_async.hpp</title>
<polygon fill="white" stroke="transparent" points="-4,4 -4,-169 365,-169 365,4 -4,4"/>
<!-- Node1 -->
<g id="node1" class="node">
<title>Node1</title>
<g id="a_node1"><a xlink:title=" ">
<polygon fill="#bfbfbf" stroke="black" points="48.5,-112.5 48.5,-164.5 209.5,-164.5 209.5,-112.5 48.5,-112.5"/>
<text text-anchor="start" x="56.5" y="-152.5" font-family="Helvetica,sans-Serif" font-size="10.00">/home/runner/work/incubator</text>
<text text-anchor="start" x="56.5" y="-141.5" font-family="Helvetica,sans-Serif" font-size="10.00">&#45;opendal/incubator&#45;opendal</text>
<text text-anchor="start" x="56.5" y="-130.5" font-family="Helvetica,sans-Serif" font-size="10.00">/bindings/cpp/include/opendal</text>
<text text-anchor="middle" x="129" y="-119.5" font-family="Helvetica,sans-Serif" font-size="10.00">_async.hpp</text>
</a>
</g>
</g>
<!-- Node2 -->
<g id="node2" class="node">
<title>Node2</title>
<g id="a_node2"><a xlink:title=" ">
<polygon fill="white" stroke="#bfbfbf" points="0,-56.5 0,-75.5 56,-75.5 56,-56.5 0,-56.5"/>
<text text-anchor="middle" x="28" y="-63.5" font-family="Helvetica,sans-Serif" font-size="10.00">optional</text>
</a>
</g>
</g>
<!-- Node1&#45;&gt;Node2 -->
<g id="edge1" class="edge">
<title>Node1&#45;&gt;Node2</title>
<path fill="none" stroke="midnightblue" d="M93.11,-112.45C78.32,-102.13 61.71,-90.53 48.97,-81.64"/>
<polygon fill="midnightblue" stroke="midnightblue" points="50.66,-78.55 40.46,-75.7 46.65,-84.29 50.66,-78.55"/>
</g>
<!-- Node3 -->
<g id="node3" class="node">
<title>Node3</title>
<g id="a_node3"><a xlink:title=" ">
<polygon fill="white" stroke="#bfbfbf" points="74,-56.5 74,-75.5 114,-75.5 114,-56.5 74,-56.5"/>
<text text-anchor="middle" x="94" y="-63.5" font-family="Helvetica,sans-Serif" font-size="10.00">span</text>
</a>
</g>
</g>
<!-- Node1&#45;&gt;Node3 -->
<g id="edge2" class="edge">
<title>Node1&#45;&gt;Node3</title>
<path fill="none" stroke="midnightblue" d="M116.56,-112.45C112.04,-103.33 107.02,-93.22 102.86,-84.85"/>
<polygon fill="midnightblue" stroke="midnightblue" points="105.9,-83.1 98.32,-75.7 99.63,-86.21 105.9,-83.1"/>
</g>
<!-- Node4 -->
<g id="node4" class="node">
<title>Node4</title>
<g id="a_node4"><a xlink:title=" ">
<polygon fill="white" stroke="#bfbfbf" points="132,-56.5 132,-75.5 198,-75.5 198,-56.5 132,-56.5"/>
<text text-anchor="middle" x="165" y="-63.5" font-family="Helvetica,sans-Serif" font-size="10.00">async.rs.h</text>
</a>
</g>
</g>
<!-- Node1&#45;&gt;Node4 -->
<g id="edge3" class="edge">
<title>Node1&#45;&gt;Node4</title>
<path fill="none" stroke="midnightblue" d="M141.79,-112.45C146.45,-103.33 151.61,-93.22 155.88,-84.85"/>
<polygon fill="midnightblue" stroke="midnightblue" points="159.13,-86.19 160.56,-75.7 152.89,-83.01 159.13,-86.19"/>
</g>
<!-- Node5 -->
<g id="node5" class="node">
<title>Node5</title>
<g id="a_node5"><a xlink:href="async__defs_8hpp.html" target="_top" xlink:title=" ">
<polygon fill="white" stroke="black" points="216,-56.5 216,-75.5 308,-75.5 308,-56.5 216,-56.5"/>
<text text-anchor="middle" x="262" y="-63.5" font-family="Helvetica,sans-Serif" font-size="10.00">async_defs.hpp</text>
</a>
</g>
</g>
<!-- Node1&#45;&gt;Node5 -->
<g id="edge4" class="edge">
<title>Node1&#45;&gt;Node5</title>
<path fill="none" stroke="midnightblue" d="M176.27,-112.45C196.61,-101.66 219.59,-89.48 236.63,-80.45"/>
<polygon fill="midnightblue" stroke="midnightblue" points="238.72,-83.3 245.91,-75.53 235.44,-77.12 238.72,-83.3"/>
</g>
<!-- Node6 -->
<g id="node6" class="node">
<title>Node6</title>
<g id="a_node6"><a xlink:title=" ">
<polygon fill="white" stroke="#bfbfbf" points="179.5,-0.5 179.5,-19.5 244.5,-19.5 244.5,-0.5 179.5,-0.5"/>
<text text-anchor="middle" x="212" y="-7.5" font-family="Helvetica,sans-Serif" font-size="10.00">rust/cxx.h</text>
</a>
</g>
</g>
<!-- Node5&#45;&gt;Node6 -->
<g id="edge5" class="edge">
<title>Node5&#45;&gt;Node6</title>
<path fill="none" stroke="midnightblue" d="M253.74,-56.08C246.54,-48.3 235.89,-36.8 227.15,-27.37"/>
<polygon fill="midnightblue" stroke="midnightblue" points="229.47,-24.71 220.1,-19.75 224.33,-29.47 229.47,-24.71"/>
</g>
<!-- Node7 -->
<g id="node7" class="node">
<title>Node7</title>
<g id="a_node7"><a xlink:title=" ">
<polygon fill="white" stroke="#bfbfbf" points="263,-0.5 263,-19.5 361,-19.5 361,-0.5 263,-0.5"/>
<text text-anchor="middle" x="312" y="-7.5" font-family="Helvetica,sans-Serif" font-size="10.00">rust/cxx_async.h</text>
</a>
</g>
</g>
<!-- Node5&#45;&gt;Node7 -->
<g id="edge6" class="edge">
<title>Node5&#45;&gt;Node7</title>
<path fill="none" stroke="midnightblue" d="M270.26,-56.08C277.46,-48.3 288.11,-36.8 296.85,-27.37"/>
<polygon fill="midnightblue" stroke="midnightblue" points="299.67,-29.47 303.9,-19.75 294.53,-24.71 299.67,-29.47"/>
</g>
</g>
</svg>
